inDegrees=yes
name=ik_lifting_orientations
DataType=double
version=3
OpenSimVersion=4.5-2024-01-10-34fd6af
endheader
time	pelvis_tilt	pelvis_list	pelvis_rotation	pelvis_tx	pelvis_ty	pelvis_tz	hip_flexion_r	hip_adduction_r	hip_rotation_r	knee_angle_r	knee_angle_r_beta	ankle_angle_r	subtalar_angle_r	mtp_angle_r	hip_flexion_l	hip_adduction_l	hip_rotation_l	knee_angle_l	knee_angle_l_beta	ankle_angle_l	subtalar_angle_l	mtp_angle_l	lumbar_extension	lumbar_bending	lumbar_rotation	arm_flex_r	arm_add_r	arm_rot_r	elbow_flex_r	pro_sup_r	wrist_flex_r	wrist_dev_r	arm_flex_l	arm_add_l	arm_rot_l	elbow_flex_l	pro_sup_l	wrist_flex_l	wrist_dev_l
0.74	-17.25174826888183	-13.33220098082738	-105.1724836449448	0	0.9399999998679526	0	45.01533139651832	-10.23467528858135	0	59.90743070446688	1.045581912203293	-5.07078123805461	0	0	45.01533139651832	-10.23467528858135	0	59.90743070446688	1.045581912203293	-5.07078123805461	0	0	-17.88031056994342	13.39722854141133	40.36247659708636	-1.679832599248207	2.718195595268023	-17.20621361272845	9.867762776125664	1.911371797158289	0	0	0	-11.28433701356091	0	88.11477427129184	1.911371797158289	0	0
0.75	-17.95974072095229	-13.6744652073402	-106.0289142440936	0	0.9399999998679526	0	45.01532706938218	-10.23444905202985	0	59.90745159834702	1.045582276870295	-5.070692644173942	0	0	45.01532706938218	-10.23444905202985	0	59.90745159834702	1.045582276870295	-5.070692644173942	0	0	-18.77380488696522	13.76599240520662	41.70225524049259	-1.527089786834696	2.594301614400823	-18.01091023436247	9.816484210838151	1.910993766339532	0	0	0	-11.28488121198817	0	88.11514709260261	1.910993766339532	0	0
0.76	-18.7253371144537	-13.99104833007534	-107.0479950359248	0	0.9399999998679526	0	45.01532011733573	-10.23407832605901	0	59.9074846483572	1.045582853701791	-5.070546909876705	0	0	45.01532011733573	-10.23407832605901	0	59.9074846483572	1.045582853701791	-5.070546909876705	0	0	-19.52072111285605	14.04330532893433	42.58910627748513	-1.57464268903889	2.621632428305433	-18.37448122657326	9.788732175794488	1.910390041839391	0	0	0	-11.28574593894499	0	88.11574249718976	1.910390041839391	0	0
0.77	-18.0319277939772	-13.51054034346174	-106.9574315383343	0	0.9399999998679526	0	45.01531602655275	-10.23386119633909	0	59.90750415964008	1.045583194237918	-5.070461645222622	0	0	45.01531602655275	-10.23386119633909	0	59.90750415964008	1.045583194237918	-5.070461645222622	0	0	-18.72879425158073	13.52675441763883	42.50353847733017	-1.769798449892834	2.667466177074786	-18.83985903165425	9.731933562123388	1.910034321041175	0	0	0	-11.28625601221533	0	88.11609331583547	1.910034321041175	0	0
0.78	-16.73374682300107	-12.60315820439798	-106.5939122484148	0	0.9399999998679526	0	45.01531119450667	-10.2336073189694	0	59.90752737913924	1.045583599494629	-5.070362165844691	0	0	45.01531119450667	-10.2336073189694	0	59.90752737913924	1.045583599494629	-5.070362165844691	0	0	-17.32917033397745	12.61035488906349	42.29638465956159	-1.799409094175822	2.747565341939401	-19.24304992899183	9.576257382205759	1.909612897529051	0	0	0	-11.28686179570611	0	88.11650893182316	1.909612897529051	0	0
0.79	-15.52584273181853	-11.80888851750969	-106.1507234156951	0	0.9399999998679526	0	45.01530489688682	-10.23327410079464	0	59.90755745411693	1.045584124402012	-5.070231445735949	0	0	45.01530489688682	-10.23327410079464	0	59.90755745411693	1.045584124402012	-5.070231445735949	0	0	-16.19750366717201	11.82524731268877	41.99057293060682	-1.793671336406056	2.707953028842073	-19.64927448145294	9.424011666343308	1.909064926814809	0	0	0	-11.28764792380971	0	88.11704935102978	1.909064926814809	0	0
0.8	-14.20838383423295	-11.16867546002122	-104.201421470044	0	0.9399999998679526	0	45.01529163521445	-10.23257867926196	0	59.90762092321837	1.045585232146806	-5.069959525630937	0	0	45.01529163521445	-10.23257867926196	0	59.90762092321837	1.045585232146806	-5.069959525630937	0	0	-14.88880121488904	11.23379566282931	39.90092173089222	-1.682714651446203	2.658084912496037	-19.62456155160609	9.196805163476633	1.907909552527195	0	0	0	-11.2893066826742	0	88.11818880334077	1.907909552527195	0	0
0.8100000000000001	-13.77803329686169	-10.96311552078821	-103.457824988008	0	0.9399999998679526	0	45.01528696366827	-10.23233306413134	0	59.90764329604377	1.045585622626272	-5.069863358702355	0	0	45.01528696366827	-10.23233306413134	0	59.90764329604377	1.045585622626272	-5.069863358702355	0	0	-14.46420240079228	11.05951640311715	39.00644839603981	-1.681370835506822	2.609145758395326	-19.85253468864811	9.143853308389746	1.907502513386674	0	0	0	-11.28989124941015	0	88.11859023316553	1.907502513386674	0	0
0.82	-13.18634212655628	-10.72953813654387	-102.2741915391161	0	0.9399999998679526	0	45.01528043375892	-10.23199142511299	0	59.90767468400944	1.045586170449618	-5.069729732921329	0	0	45.01528043375892	-10.23199142511299	0	59.90767468400944	1.045586170449618	-5.069729732921329	0	0	-13.91129460798123	10.85048185235131	37.84204151468339	-1.75625351764256	2.560377011485921	-20.39187905589616	9.268459138556706	1.906932711212331	0	0	0	-11.29071059322975	0	88.1191521830719	1.906932711212331	0	0
0.83	-12.35263088337259	-10.26958000885664	-101.0462791598129	0	0.9399999998679526	0	45.01526978396771	-10.23143593342087	0	59.90772578637019	1.045587062354069	-5.069512868379701	0	0	45.01526978396771	-10.23143593342087	0	59.90772578637019	1.045587062354069	-5.069512868379701	0	0	-13.1148114482644	10.42354729307021	36.97737761949544	-1.80511308238547	2.507286601368914	-21.29378420878362	9.406732642743888	1.906003711536654	0	0	0	-11.29204572186301	0	88.12006838046788	1.906003711536654	0	0
0.84	-11.2760874784532	-9.601744534378186	-99.66989510972553	0	0.9399999998679526	0	45.01525895386371	-10.23087089966674	0	59.90777764676621	1.045587967488731	-5.069292400150667	0	0	45.01525895386371	-10.23087089966674	0	59.90777764676621	1.045587967488731	-5.069292400150667	0	0	-12.12718049573376	9.815202840642284	35.90135578411234	-1.865319119791743	2.437611444609171	-21.87470444462082	9.567766340799439	1.905059536487159	0	0	0	-11.293401863613	0	88.12099954408215	1.905059536487159	0	0
0.85	-10.29841004623477	-8.962359668802906	-98.44620774425451	0	0.9399999998679526	0	45.01525366631268	-10.23059588431523	0	59.90780309128615	1.04558841157938	-5.069185077909956	0	0	45.01525366631268	-10.23059588431523	0	59.90780309128615	1.04558841157938	-5.069185077909956	0	0	-11.14678793738624	9.19970648147449	34.60101386543914	-1.950919667733799	2.431855419043	-21.81859674689366	9.623124394147373	1.904597747325911	0	0	0	-11.29406626475245	0	88.12145496949513	1.904597747325911	0	0
0.86	-9.566319007247628	-8.445973171844004	-97.53970692455513	0	0.9399999998679526	0	45.01524887391377	-10.23034960965789	0	59.90782636505566	1.045588817783288	-5.069089205911661	0	0	45.01524887391377	-10.23034960965789	0	59.90782636505566	1.045588817783288	-5.069089205911661	0	0	-10.36381667581214	8.696932182653009	33.51165023066822	-2.014446388359514	2.423649337423353	-21.79420293967831	9.669532667867001	1.904177689490117	0	0	0	-11.29467246167468	0	88.1218692387522	1.904177689490117	0	0
0.87	-8.943142468940394	-8.043592022368456	-96.64069321586129	0	0.9399999998679526	0	45.01524503682615	-10.23015171080329	0	59.9078449291251	1.045589141787422	-5.069012134981394	0	0	45.01524503682615	-10.23015171080329	0	59.9078449291251	1.045589141787422	-5.069012134981394	0	0	-9.627082438721347	8.212165905779104	32.57522873747035	-2.255290369129143	2.721548814003126	-21.76169691829795	10.08811454974581	1.903841828447583	0	0	0	-11.2951565644104	0	88.12220047145848	1.903841828447583	0	0
0.88	-8.3359072969851	-7.580790129163559	-95.7228266566925	0	0.9399999998679526	0	45.01523916441589	-10.22984291937108	0	59.90787290100116	1.045589629988757	-5.068891436517383	0	0	45.01523916441589	-10.22984291937108	0	59.90787290100116	1.045589629988757	-5.068891436517383	0	0	-9.025934372328718	7.834616923534598	32.09967458339167	-2.416923095296666	2.703682436673703	-21.9385331433561	10.55806783042006	1.903330879234169	0	0	0	-11.29588931924615	0	88.1227043793625	1.903330879234169	0	0
0.89	-7.87173510166572	-7.260087545579509	-94.97359243499818	0	0.9399999998679526	0	45.01523371560142	-10.22955723315021	0	59.90789889797635	1.04559008372157	-5.06877985641859	0	0	45.01523371560142	-10.22955723315021	0	59.90789889797635	1.04559008372157	-5.06877985641859	0	0	-8.739420595433829	7.605400166987085	31.8282420688937	-2.648833211617076	2.508733516271441	-22.33766782153901	11.13815591875794	1.902856445366978	0	0	0	-11.29657010331661	0	88.12317227515247	1.902856445366978	0	0
0.9	-7.429141841080371	-6.948375435040444	-94.18337518497863	0	0.9399999998679526	0	45.01522871024958	-10.22929399062831	0	59.9079227081864	1.045590499288131	-5.068676998689162	0	0	45.01522871024958	-10.22929399062831	0	59.9079227081864	1.045590499288131	-5.068676998689162	0	0	-8.349492457740942	7.326069059365848	31.73214411073882	-2.940399316308	2.381135561968733	-22.71317625362759	11.77208746038475	1.902421094108832	0	0	0	-11.2971942220375	0	88.12360162689758	1.902421094108832	0	0
0.91	-6.96679790131693	-6.637478723962444	-93.37440448800371	0	0.9399999998679526	0	45.01522373975754	-10.22903397332377	0	59.90794643411585	1.045590913383718	-5.068575532526375	0	0	45.01522373975754	-10.22903397332377	0	59.90794643411585	1.045590913383718	-5.068575532526375	0	0	-7.776587490953355	6.934139799202326	30.78328646461202	-3.333877792804858	2.596872040215402	-22.21048819284244	12.83064669133623	1.90198816230707	0	0	0	-11.29781559270122	0	88.12402859256308	1.90198816230707	0	0
0.92	-6.719964343291693	-6.444964225309402	-92.79880280179418	0	0.9399999998679526	0	45.01520297157289	-10.22795843486152	0	59.90804590932352	1.045592649553616	-5.068157244302059	0	0	45.01520297157289	-10.22795843486152	0	59.90804590932352	1.045592649553616	-5.068157244302059	0	0	-7.207886962448151	6.643671038384814	29.18941794047774	-4.088000389027575	3.056725219238004	-20.86486534007146	14.12522720319141	1.900176068310921	0	0	0	-11.30041960645309	0	88.12581571467304	1.900176068310921	0	0
0.93	-6.501538856403172	-6.28148731890048	-92.23107271572022	0	0.9399999998679526	0	45.01518407789335	-10.22697347064148	0	59.90813577957604	1.045594218085422	-5.067773894223204	0	0	45.01518407789335	-10.22697347064148	0	59.90813577957604	1.045594218085422	-5.067773894223204	0	0	-6.733183885954059	6.368394157509177	28.44455658123023	-4.738442027099659	3.72243360213455	-20.36438030632496	15.77047973835516	1.898531580351031	0	0	0	-11.30277768455864	0	88.12743754025664	1.898531580351031	0	0
0.9399999999999999	-6.31661422848969	-6.156549793360901	-91.77406233959583	0	0.9399999998679526	0	45.01517242241813	-10.22636598237879	0	59.90819117301307	1.045595184883282	-5.067537550398959	0	0	45.01517242241813	-10.22636598237879	0	59.90819117301307	1.045595184883282	-5.067537550398959	0	0	-6.49515271740274	6.203448433482744	28.78357001405716	-5.549370242158911	4.16156128041331	-20.41217048617954	17.66934735603262	1.897517266617517	0	0	0	-11.30423189509083	0	88.12843787592251	1.897517266617517	0	0
0.95	-6.224253432948114	-6.102119130859219	-91.47411210206162	0	0.9399999998679526	0	45.01516535401714	-10.2259965444795	0	59.90822471741816	1.045595770343596	-5.067393713494311	0	0	45.01516535401714	-10.2259965444795	0	59.90822471741816	1.045595770343596	-5.067393713494311	0	0	-6.37240684302305	6.127790073022477	29.35425169897427	-6.381016816366229	4.545972188162881	-20.52375350497984	19.1955731354425	1.896902477351554	0	0	0	-11.30511298086565	0	88.12904419287945	1.896902477351554	0	0
